PathFileType	4	(X/Y/Z)	C:/Users/opensim2020/Desktop/walking_exp_matlab/subject06_walking23_straight_03.trc	
DataRate	CameraRate	NumFrames	NumMarkers	Units	OrigDataRate	OrigDataStartFrame	OrigNumFrames	
100.00	100.00	6	45	mm	100.00	1740	94	
Frame#	Time	LFHD			RFHD			LBHD			RBHD			C7			T10			CLAV			STRN			RBAK			LSHO			LUPA			LELB			LFRM			LWRA			LWRB			LFIN			RSHO			RUPA			RELB			RFRM			RWRA			RWRB			RFIN			LASI			RASI			LPSI			RPSI			LTHI			LKNE			LTIB			LANK			LHEE			LTOE			RTHI			RKNE			RTIB			RANK			RHEE			RTOE			*39			*40			*41			*42			*43			*44			
		X1	Y1	Z1	X2	Y2	Z2	X3	Y3	Z3	X4	Y4	Z4	X5	Y5	Z5	X6	Y6	Z6	X7	Y7	Z7	X8	Y8	Z8	X9	Y9	Z9	X10	Y10	Z10	X11	Y11	Z11	X12	Y12	Z12	X13	Y13	Z13	X14	Y14	Z14	X15	Y15	Z15	X16	Y16	Z16	X17	Y17	Z17	X18	Y18	Z18	X19	Y19	Z19	X20	Y20	Z20	X21	Y21	Z21	X22	Y22	Z22	X23	Y23	Z23	X24	Y24	Z24	X25	Y25	Z25	X26	Y26	Z26	X27	Y27	Z27	X28	Y28	Z28	X29	Y29	Z29	X30	Y30	Z30	X31	Y31	Z31	X32	Y32	Z32	X33	Y33	Z33	X34	Y34	Z34	X35	Y35	Z35	X36	Y36	Z36	X37	Y37	Z37	X38	Y38	Z38	X39	Y39	Z39	X40	Y40	Z40	X41	Y41	Z41	X42	Y42	Z42	X43	Y43	Z43	X44	Y44	Z44	X45	Y45	Z45	

1	0.000	1330.89795	-631.49133	1645.07581	1462.62561	-632.05078	1638.27991	1331.95959	-766.11670	1594.23389	1461.36792	-764.93799	1592.21240	1384.49500	-774.03394	1444.85803	1399.97510	-851.21051	1125.81958	1397.00464	-672.73535	1355.84399	1393.07825	-655.70978	1177.08704	1457.08789	-872.11365	1289.29773	1231.05139	-704.98682	1390.87549	1154.62305	-691.43567	1191.19250	1136.71228	-679.90546	1079.09009	1126.29175	-607.82739	945.41479	1186.51025	-522.54980	858.47369	1137.51013	-567.95972	833.81067	1150.35022	-502.64014	772.42346	1552.64111	-728.55353	1394.87109	1637.38696	-832.51752	1224.99719	1652.59216	-863.82922	1106.31897	1669.46521	-875.74182	986.80603	1635.99792	-842.39435	839.50537	1676.04260	-895.89734	850.83386	1672.16687	-878.46906	767.40271	1293.41980	-695.25519	946.16925	1512.79175	-691.42218	955.11926	1327.39331	-849.72522	990.05310	1494.13464	-840.61615	987.62988	1250.81445	-800.31049	639.20911	1284.09009	-819.64410	477.35016	1302.97766	-914.21246	236.38286	1358.77209	-959.30859	73.35624	1404.12500	-1003.79236	65.74691	1360.45203	-821.47729	39.32362	1588.96692	-658.70807	646.06787	1567.23230	-598.83008	536.26324	1566.56702	-630.87988	274.08795	1523.64294	-647.58911	89.16628	1476.08643	-684.39874	63.13855	1536.03735	-500.48395	56.78671	1388.40588	-731.00482	1687.57715															 
2	0.010	1331.14709	-619.69470	1643.16077	1462.85486	-620.62769	1636.30090	1331.90198	-754.25800	1592.10742	1461.33972	-753.48663	1590.08386	1384.62830	-761.40967	1442.64526	1400.89661	-839.05524	1123.63269	1397.20190	-660.63855	1353.75085	1393.08557	-643.58447	1175.06470	1457.22217	-860.00317	1287.14429	1231.30054	-692.99628	1388.82385	1154.74146	-677.16907	1189.55896	1136.89307	-663.88318	1077.74231	1127.49158	-586.87445	946.70416	1188.69666	-498.45160	864.16656	1140.30566	-542.98254	836.88812	1153.64758	-474.92276	778.69391	1552.82056	-716.66559	1392.90356	1637.19702	-822.27747	1224.13257	1652.43494	-854.55573	1105.61511	1669.25378	-867.44714	986.14246	1635.92249	-835.12823	838.57190	1675.73621	-888.68445	850.35602	1671.88184	-871.95361	766.65271	1293.23706	-683.64923	944.23163	1512.59851	-678.24518	953.16223	1328.56543	-837.97351	987.74500	1495.28625	-827.52228	985.08948	1251.24548	-791.25256	637.84399	1284.52197	-813.40405	476.12708	1303.55505	-911.62787	236.50117	1359.53125	-958.75214	74.03571	1405.03796	-1003.20209	66.90218	1360.55957	-821.33423	39.16206	1588.86865	-645.07477	643.59381	1566.64771	-585.09521	534.03186	1566.01086	-603.63055	270.34729	1523.37134	-608.13440	84.59940	1475.19312	-642.30865	56.37897	1534.71008	-459.50000	59.23363	1388.43262	-719.45697	1685.49487															 
3	0.020	1331.50781	-607.80231	1641.03748	1463.25256	-609.07190	1634.15662	1331.84912	-742.30853	1589.85535	1461.31946	-741.86761	1587.79761	1384.85681	-749.48120	1440.38147	1401.88977	-826.70422	1121.22620	1397.46606	-648.51080	1351.54211	1393.13745	-631.33936	1172.84875	1457.34863	-847.69678	1284.72607	1231.60425	-681.02917	1386.75146	1155.00183	-662.89471	1187.84595	1137.08716	-647.99200	1076.37646	1128.87451	-566.96509	948.02600	1191.01831	-475.06058	869.97479	1143.15234	-518.32294	840.23694	1156.83020	-447.67587	785.25555	1553.02747	-704.64374	1390.76770	1637.12256	-811.81219	1223.07202	1652.40735	-845.05817	1104.71362	1669.23755	-858.83685	985.35205	1636.04541	-827.41827	837.53485	1675.61938	-881.07220	849.70190	1671.87500	-864.97247	765.89374	1293.51306	-671.60449	942.22388	1512.55298	-664.98352	950.93127	1329.81860	-825.97833	985.33521	1496.47839	-814.25385	982.36438	1251.90222	-781.97986	636.42944	1284.88623	-807.07953	474.98239	1304.05920	-909.01227	236.73137	1360.29456	-958.55945	74.78455	1405.78479	-1002.58618	68.16290	1360.60681	-821.10791	39.02196	1588.71875	-631.90509	640.50940	1566.16162	-571.96454	530.97455	1565.32678	-577.15747	266.90756	1523.04150	-569.22607	81.14862	1474.79858	-601.56628	51.61787	1534.26172	-419.49014	63.08223	1388.53601	-707.72076	1683.26221															 
4	0.030	1331.91992	-595.76801	1638.77759	1463.63660	-597.37329	1631.86279	1331.85413	-730.17218	1587.50073	1461.31116	-730.19141	1585.41907	1385.02515	-737.76678	1438.03662	1402.99536	-814.21326	1118.69739	1397.74316	-636.14624	1349.20862	1393.38794	-618.84387	1170.56848	1457.58936	-835.36987	1282.15686	1231.77246	-668.91821	1384.66614	1155.26428	-648.73688	1186.04688	1137.41333	-632.33820	1074.98572	1130.30005	-546.89813	949.50372	1193.39014	-452.25513	875.91290	1145.97913	-494.18710	843.73621	1160.02454	-421.33856	792.08118	1553.30664	-692.53223	1388.46216	1637.13892	-801.16058	1221.93774	1652.59045	-835.20984	1103.71045	1669.35120	-849.76813	984.40601	1636.39734	-819.21216	836.28656	1675.73425	-873.06769	848.95538	1672.17249	-857.37915	765.04364	1293.30322	-659.95471	940.01758	1512.69751	-651.47394	948.45612	1331.11121	-813.69818	982.81104	1497.69104	-800.73840	979.59650	1252.24915	-772.76208	635.02423	1285.15393	-800.33850	473.81662	1304.39844	-906.00348	237.00049	1360.88098	-957.77808	75.55441	1406.37842	-1001.94281	69.59267	1360.64966	-820.89691	38.91573	1588.28613	-619.31982	636.74341	1565.78833	-559.39087	527.34619	1564.42932	-551.53180	263.81808	1522.66089	-531.01923	79.05629	1474.41394	-561.53552	48.81578	1534.46680	-380.39908	67.73075	1388.66541	-695.88470	1680.95032															 
5	0.040	1332.33154	-583.61322	1636.48083	1464.11169	-585.52960	1629.51941	1331.95654	-717.94867	1585.00720	1461.46716	-718.23767	1582.94995	1385.38501	-724.92657	1435.37842	1404.20715	-801.64539	1116.02417	1398.07642	-623.75061	1346.77856	1393.48743	-606.28680	1168.13123	1457.88928	-822.82971	1279.35376	1232.14880	-656.82928	1382.42249	1155.57324	-634.69275	1184.25244	1137.79419	-616.48633	1073.51489	1131.55615	-527.37561	950.73389	1195.78027	-430.13742	881.82306	1148.90002	-470.70844	847.38318	1163.57031	-395.37781	799.45081	1553.68835	-680.28046	1386.07922	1637.20984	-790.23950	1220.57581	1652.81152	-825.06317	1102.53259	1669.59460	-840.43274	983.26508	1636.93066	-810.53650	834.92023	1676.03613	-864.51025	847.93323	1672.56543	-849.39740	763.92749	1293.59436	-647.65314	937.71326	1512.88708	-637.74939	945.88287	1332.52258	-801.39899	980.28833	1498.99951	-786.62341	976.65363	1252.45447	-763.13867	633.46606	1285.26379	-793.30255	472.55173	1304.53870	-902.84698	237.32634	1361.17651	-957.22583	76.68103	1406.70715	-1001.23877	71.21230	1360.61938	-820.63599	38.80163	1588.38953	-607.09253	632.82416	1565.40295	-547.32629	522.98505	1563.35132	-526.78546	261.20142	1522.10938	-494.16214	78.18565	1473.46899	-522.61212	47.01627	1535.21924	-343.45300	73.54145	1388.89233	-683.91052	1678.49548															 
6	0.050	1332.87415	-571.20392	1634.19531	1464.62524	-573.56995	1627.22522	1332.16748	-705.57568	1582.47815	1461.67163	-706.20972	1580.39490	1385.65234	-712.55280	1432.83569	1405.40552	-788.75171	1113.26477	1398.45313	-611.10791	1344.32202	1393.85498	-593.36652	1165.77368	1458.25806	-810.16290	1276.51001	1232.55237	-644.68018	1380.14893	1155.94336	-620.69861	1182.34680	1138.31006	-600.96423	1071.94788	1133.12561	-508.02032	952.18799	1198.27759	-408.64606	887.73718	1151.88391	-447.76370	851.02173	1166.87146	-370.18298	806.87469	1554.12000	-667.78143	1383.59192	1637.37073	-779.05737	1219.05676	1653.16101	-814.57391	1101.16150	1670.05212	-830.64825	981.99365	1637.81555	-801.39203	833.46655	1676.47644	-855.51410	846.69647	1673.21887	-840.92218	762.69452	1293.91895	-635.29553	935.38147	1513.12134	-623.86841	943.09027	1333.87207	-788.91107	977.74524	1500.38647	-773.24408	973.79620	1252.72180	-753.36127	631.87964	1285.30066	-785.76434	471.17313	1304.72119	-899.42389	237.51762	1361.21667	-956.37622	77.95349	1406.71912	-1000.55957	73.05717	1360.57507	-820.38708	38.63682	1588.11780	-595.42096	628.16986	1564.98853	-535.54938	518.30377	1562.13367	-503.23563	259.38519	1521.35010	-459.19904	78.44649	1471.97314	-485.10498	45.89702	1536.20020	-307.64426	79.56250	1389.18250	-671.84760	1676.01001															 
